<?xml version="1.0" encoding="UTF-8"?><svg id="_レイヤー_1" xmlns="http://www.w3.org/2000/svg" viewBox="0 0 1920 253.9"><defs><style>.cls-1{fill:#e50012;}</style></defs><path class="cls-1" d="M109.48,52.63v87.1h85.32v22.24H109.48v87.85h-24.16v-87.85H0v-22.24H85.32V52.63h24.16Z"/><path class="cls-1" d="M453.01,140.11c-1.89-34.84-4.15-76.73-3.78-107.86h-1.13c-8.68,29.28-19.25,60.42-32.09,94.89l-44.92,121.21h-24.92l-41.15-118.98c-12.08-35.21-22.27-67.46-29.45-97.11h-.75c-.75,31.14-2.64,73.02-4.91,110.46l-6.8,107.12h-31.33L249.53,0h41.9l43.41,120.84c10.57,30.76,19.25,58.19,25.67,84.14h1.13c6.42-25.2,15.48-52.63,26.8-84.14L433.76,0h41.9l15.86,249.82h-32.09l-6.42-109.71Z"/><path class="cls-1" d="M706.32,158.64c0,66.35-46.81,95.26-90.98,95.26-49.45,0-87.58-35.58-87.58-92.29,0-60.05,40.02-95.26,90.6-95.26s87.96,37.44,87.96,92.29Zm-144.97,1.85c0,39.29,23.03,68.94,55.49,68.94s55.49-29.28,55.49-69.68c0-30.39-15.48-68.94-54.74-68.94s-56.25,35.58-56.25,69.68Z"/><path class="cls-1" d="M761.05,70.43l35.86,100.82c6.04,16.31,10.95,31.14,14.72,45.96h1.13c4.15-14.83,9.44-29.65,15.48-45.96l35.49-100.82h34.73l-71.73,179.4h-31.71l-69.46-179.4h35.49Z"/><path class="cls-1" d="M948.29,166.06c.75,44.11,29.45,62.27,62.67,62.27,23.78,0,38.13-4.08,50.59-9.27l5.66,23.35c-11.7,5.19-31.71,11.12-60.78,11.12-56.25,0-89.85-36.33-89.85-90.44s32.47-96.74,85.7-96.74c59.65,0,75.5,51.52,75.5,84.51,0,6.67-.75,11.86-1.13,15.2h-128.36Zm97.4-23.35c.38-20.76-8.68-53-46.06-53-33.6,0-48.32,30.39-50.97,53h97.02Z"/><path class="cls-1" d="M1118.93,118.98c0-18.53-.38-33.73-1.51-48.56h29.07l1.51,28.91h1.13c10.19-17.05,27.18-32.99,57.38-32.99,24.92,0,43.79,14.83,51.72,35.95h.75c5.66-10.01,12.83-17.79,20.39-23.35,10.95-8.15,23.03-12.6,40.39-12.6,24.16,0,60.03,15.57,60.03,77.84v105.64h-32.47v-101.56c0-34.47-12.84-55.23-39.64-55.23-18.88,0-33.6,13.71-39.26,29.65-1.51,4.45-2.64,10.38-2.64,16.31v110.83h-32.47v-107.49c0-28.54-12.83-49.3-38.13-49.3-20.76,0-35.86,16.31-41.15,32.62-1.89,4.82-2.64,10.38-2.64,15.94v108.23h-32.47V118.98Z"/><path class="cls-1" d="M1452.27,166.06c.75,44.11,29.45,62.27,62.67,62.27,23.78,0,38.13-4.08,50.59-9.27l5.66,23.35c-11.7,5.19-31.71,11.12-60.78,11.12-56.25,0-89.85-36.33-89.85-90.44s32.47-96.74,85.7-96.74c59.65,0,75.5,51.52,75.5,84.51,0,6.67-.75,11.86-1.13,15.2h-128.36Zm97.4-23.35c.38-20.76-8.68-53-46.06-53-33.6,0-48.32,30.39-50.96,53h97.02Z"/><path class="cls-1" d="M1622.9,118.98c0-18.53-.38-33.73-1.51-48.56h29.45l1.89,29.65h.75c9.06-17.05,30.2-33.73,60.4-33.73,25.29,0,64.55,14.83,64.55,76.36v107.12h-33.22v-103.41c0-28.91-10.95-53-42.28-53-21.9,0-38.88,15.2-44.55,33.36-1.51,4.08-2.26,9.64-2.26,15.2v107.86h-33.22V118.98Z"/><path class="cls-1" d="M1872.43,18.9v51.52h47.57v24.83h-47.57v96.74c0,22.24,6.42,34.84,24.92,34.84,8.68,0,15.1-1.11,19.25-2.22l1.51,24.46c-6.42,2.59-16.61,4.45-29.45,4.45-15.48,0-27.94-4.82-35.86-13.71-9.44-9.64-12.84-25.58-12.84-46.7V95.26h-28.31v-24.83h28.31V27.43l32.47-8.53Z"/></svg>